<svg xmlns="http://www.w3.org/2000/svg" width="357.908" height="99.055" viewBox="0 0 357.908 99.055">
  <g id="champ_LOGO" transform="translate(-246.942 -217.416)">
    <g id="Group_3" data-name="Group 3" transform="translate(246.943 217.416)">
      <g id="Group_2" data-name="Group 2" transform="translate(0)">
        <path id="Path_2" data-name="Path 2" d="M349.886,287.737v-2.659c0-5.5-4.934-6.26-11.031-5.723-10.223.9-11.208,4.291-11.208,14.107v10.731c0,10.275.448,14.546,11.208,13.6,7.441-.655,11.031-1.526,11.031-9.6v-2.017l18.469-1.626v2.017c0,19.355-6.545,25.16-27.528,27.011-18.292,1.613-31.651,1.506-31.651-23.628v-17.8c0-22.75,11.927-27.195,31.651-28.933,17.846-1.573,27.528,2.617,27.528,20.23v2.66Z" transform="translate(-309.176 -235.098)" fill="#161615"/>
        <path id="Path_3" data-name="Path 3" d="M359.362,288.83l23.4-2.062V260.9l17.935-1.581v68.8L382.764,329.7V302.728l-23.4,2.062v26.97l-17.932,1.581v-68.8l17.932-1.581Z" transform="translate(-277.773 -238.601)" fill="#161615"/>
        <path id="Path_4" data-name="Path 4" d="M435.177,257.318,448,299.394l.63-.055,12.191-44.28,29.143-2.57v68.8l-17.933,1.581,1.792-52.9-.805-.114-16.857,54.415-15.513,1.368L423.7,274.2l-.805.257,1.792,52.587-17.934,1.581v-68.8Z" transform="translate(-214.172 -245.25)" fill="#161615"/>
        <path id="Path_5" data-name="Path 5" d="M470.023,321.006l-17.932,1.579v-68.8l33.8-2.98c16.677-1.47,22.955,4.307,22.955,22.284,0,19.355-4.216,25.78-22.955,27.433l-15.872,1.4Zm0-34.126,12.284-1.082c6.815-.6,8.07-2,8.07-10.9,0-7.062-1.078-9.351-8.07-8.735l-12.284,1.084Z" transform="translate(-170.031 -247.099)" fill="#161615"/>
        <path id="Path_6" data-name="Path 6" d="M497.673,290.561l-14.526,1.281-1.076-41.551,16.675-1.47Zm0,27.151L483.148,319V303.953l14.526-1.283Z" transform="translate(-140.84 -248.821)" fill="#161615"/>
      </g>
      <path id="Path_7" data-name="Path 7" d="M410.1,280.956l-1.906,13.465-28.117-15.045-8.251,29.007,66.307-5.759Z" transform="translate(-248.18 -219.072)" fill="#161615"/>
      <path id="Path_8" data-name="Path 8" d="M379.766,274.815l13.507,13.873,5.108-16.9,33.656,52.384L411.444,257.1l-27.263,2.353Z" transform="translate(-240.448 -240.762)" fill="#0099dc"/>
    </g>
  </g>
</svg>
