<?xml version="1.0" standalone="no"?>
<!DOCTYPE svg PUBLIC "-//W3C//DTD SVG 20010904//EN"
 "http://www.w3.org/TR/2001/REC-SVG-20010904/DTD/svg10.dtd">
<svg version="1.0" xmlns="http://www.w3.org/2000/svg"
 width="856.000000pt" height="856.000000pt" viewBox="0 0 856.000000 856.000000"
 preserveAspectRatio="xMidYMid meet">
<metadata>
Created by potrace 1.11, written by Peter Selinger 2001-2013
</metadata>
<g transform="translate(0.000000,856.000000) scale(0.100000,-0.100000)"
fill="#000000" stroke="none">
<path d="M5757 8554 c-1 -1 -38 -5 -82 -8 -117 -10 -250 -22 -340 -31 -27 -3
-79 -7 -115 -10 -36 -2 -65 -5 -65 -6 0 0 -22 -3 -50 -4 -27 -2 -75 -6 -105
-9 -154 -15 -208 -20 -242 -20 -21 -1 -38 -3 -38 -6 0 -3 -15 -5 -33 -6 -33
-1 -157 -11 -237 -18 -25 -3 -76 -8 -115 -11 -38 -3 -88 -8 -110 -10 -22 -3
-71 -7 -110 -10 -38 -3 -90 -7 -115 -10 -25 -2 -76 -7 -115 -10 -38 -3 -86 -7
-105 -10 -19 -3 -66 -7 -105 -10 -101 -8 -163 -14 -220 -19 -27 -3 -79 -8
-115 -11 -132 -12 -163 -15 -171 -21 -5 -3 -9 0 -9 6 0 6 -5 8 -12 3 -7 -4
-22 -8 -33 -9 -134 -11 -198 -16 -212 -19 -10 -2 -39 -4 -64 -4 l-46 -1 -18
-67 c-10 -38 -20 -72 -23 -78 -4 -5 -7 -16 -8 -25 -3 -20 -43 -171 -51 -190
-3 -8 -8 -23 -9 -32 -2 -9 -22 -84 -45 -165 -22 -81 -42 -155 -44 -163 -2 -8
-16 -58 -30 -110 -15 -52 -33 -120 -41 -150 -8 -30 -22 -78 -30 -106 -8 -28
-16 -60 -19 -70 -2 -11 -20 -75 -40 -144 -20 -69 -38 -136 -41 -150 -5 -26
-33 -126 -60 -220 -9 -30 -17 -59 -18 -65 -1 -5 -5 -15 -8 -21 -11 -17 -2 -50
19 -71 10 -11 59 -63 108 -117 50 -53 106 -114 125 -135 19 -20 78 -84 130
-140 52 -57 111 -120 130 -140 33 -35 142 -153 306 -330 38 -41 92 -98 119
-127 28 -29 79 -85 115 -124 36 -39 90 -97 120 -129 30 -32 98 -104 151 -162
147 -158 170 -182 173 -178 4 4 45 139 52 173 6 26 9 37 17 56 3 8 8 24 10 35
6 22 51 180 92 320 14 50 28 97 30 105 2 8 18 62 35 120 17 58 33 114 35 124
3 11 11 40 20 66 9 26 17 56 19 66 5 23 65 231 73 254 3 8 7 20 8 25 2 6 33
115 70 244 37 129 68 239 70 245 1 6 5 18 8 26 3 8 11 35 17 60 l12 44 19 -24
c10 -14 19 -31 19 -37 0 -7 5 -13 10 -13 6 0 10 -5 10 -10 0 -6 19 -41 43 -78
23 -36 47 -74 52 -84 6 -10 26 -44 46 -75 104 -166 279 -454 279 -459 0 -3 5
-10 10 -17 12 -14 170 -267 170 -272 0 -2 32 -53 70 -114 39 -62 70 -116 70
-121 0 -6 4 -10 9 -10 5 0 12 -8 15 -17 9 -26 38 -77 46 -83 7 -5 148 -236
165 -270 5 -11 13 -20 17 -20 5 0 8 -6 8 -14 0 -7 7 -19 15 -26 9 -7 13 -15
11 -17 -3 -3 4 -14 15 -26 10 -11 19 -27 19 -34 0 -7 3 -13 8 -13 4 0 13 -15
21 -32 8 -18 18 -35 21 -38 4 -3 22 -30 39 -60 45 -77 55 -94 61 -100 3 -3 19
-27 34 -55 16 -27 34 -57 41 -65 7 -8 23 -35 36 -60 13 -25 26 -47 30 -50 10
-10 69 -111 69 -119 0 -5 4 -11 8 -13 5 -1 34 -46 66 -98 31 -52 96 -158 143
-235 47 -77 98 -159 112 -183 111 -180 159 -259 176 -286 54 -87 173 -282 194
-319 13 -23 28 -43 32 -45 5 -2 9 -8 9 -12 0 -9 351 -586 370 -607 5 -7 10
-15 10 -18 0 -4 12 -25 28 -48 29 -46 37 -59 78 -127 30 -50 125 -205 159
-260 33 -51 175 -283 280 -455 114 -188 274 -447 298 -483 9 -15 24 -41 31
-58 8 -17 22 -36 30 -44 9 -7 16 -16 16 -20 0 -9 106 -183 183 -300 27 -41 46
-67 43 -57 -11 34 -57 192 -61 210 -2 9 -7 22 -10 27 -3 5 -8 20 -10 32 -3 13
-19 70 -36 128 -18 58 -33 112 -34 120 -1 8 -5 22 -8 30 -5 13 -50 158 -52
170 -1 3 -7 23 -13 45 -6 22 -12 45 -13 50 -1 6 -10 35 -21 65 -10 30 -18 56
-18 58 0 1 0 3 -1 5 0 1 -2 9 -4 17 -7 31 -67 236 -75 255 -10 27 -30 95 -35
120 -2 11 -4 21 -5 23 -2 1 -4 7 -5 12 -1 6 -4 12 -5 15 -1 3 -3 8 -4 13 -2 4
-8 27 -16 52 -7 25 -14 50 -15 55 -2 6 -10 35 -19 65 -10 30 -26 84 -36 120
-10 36 -28 99 -40 140 -12 41 -23 80 -24 85 -3 14 -53 181 -70 235 -20 60
-107 361 -111 380 -2 8 -12 44 -24 80 -18 60 -53 175 -57 193 -1 4 -3 9 -4 12
-3 6 -4 8 -14 50 -13 48 -87 299 -93 315 -3 8 -8 24 -10 35 -2 11 -7 31 -13
45 -5 14 -21 68 -35 120 -14 52 -30 106 -35 120 -4 14 -16 52 -26 85 -9 33
-23 80 -31 105 -9 25 -16 52 -17 60 -1 8 -13 49 -26 90 -13 41 -23 78 -22 82
1 4 -5 23 -13 42 -9 20 -15 38 -15 41 0 3 -2 10 -4 17 -3 7 -8 27 -12 43 -4
17 -8 35 -10 40 -18 60 -87 292 -89 300 -1 6 -4 17 -7 25 -3 8 -11 33 -17 55
-6 22 -20 69 -30 105 -20 63 -54 180 -56 190 -8 32 -28 100 -35 120 -6 14 -11
34 -13 45 -2 11 -7 27 -10 35 -7 18 -49 161 -51 175 -1 6 -4 15 -8 20 -3 6 -9
26 -14 45 -10 45 -8 38 -24 90 -7 25 -15 50 -16 55 -2 6 -16 55 -32 110 -103
346 -116 390 -126 433 -2 9 -11 37 -19 62 -22 70 -38 124 -41 140 -2 8 -8 26
-13 40 -6 14 -14 41 -19 60 -10 43 -9 42 -17 60 -3 8 -13 40 -21 70 -23 88
-106 373 -117 400 -5 14 -11 34 -14 45 -2 11 -20 74 -40 140 -19 66 -38 129
-40 140 -7 28 -35 125 -46 155 -5 14 -10 34 -12 45 -2 11 -7 27 -10 35 -7 17
-38 126 -39 137 -1 5 -7 22 -14 38 -7 17 -13 33 -13 38 -1 4 -1 8 -2 10 0 1
-2 10 -5 20 -7 31 -10 41 -33 117 -44 149 -38 138 -77 137 -19 -1 -36 -2 -37
-3z"/>
<path d="M1410 3204 c-9 -23 -72 -233 -86 -284 -4 -16 -40 -138 -123 -415 -28
-93 -58 -195 -67 -225 -9 -30 -18 -62 -21 -70 -3 -8 -7 -21 -9 -28 -1 -6 -14
-51 -29 -99 -15 -47 -28 -91 -29 -97 -1 -6 -12 -44 -25 -84 -13 -40 -24 -78
-25 -85 -2 -7 -5 -19 -9 -27 -14 -38 -61 -201 -62 -215 0 -5 -4 -15 -7 -21 -4
-6 -9 -21 -12 -35 -3 -13 -19 -69 -36 -124 -17 -55 -33 -107 -35 -115 -29
-105 -48 -169 -55 -185 -5 -11 -11 -31 -13 -45 -3 -14 -37 -131 -76 -260 -40
-129 -73 -242 -75 -250 -2 -8 -6 -22 -9 -30 -5 -12 -37 -118 -42 -140 -1 -3
-9 -30 -19 -61 -9 -31 -18 -66 -21 -78 -2 -11 -7 -26 -10 -31 -3 -5 -8 -18
-10 -27 -2 -10 -13 -47 -24 -83 -11 -36 -21 -70 -21 -76 0 -7 21 -10 62 -8 83
5 173 12 173 14 0 1 27 3 60 5 33 2 89 7 125 10 122 11 165 15 235 19 39 3 70
6 70 6 0 1 23 3 50 5 73 5 184 14 235 19 25 3 81 8 125 11 44 4 100 8 125 10
25 2 79 7 120 10 72 6 120 10 233 20 53 4 176 14 257 20 25 2 77 6 115 10 128
11 149 13 240 21 50 4 114 8 142 8 29 1 53 3 53 6 0 3 17 5 38 6 20 1 71 4
112 7 41 4 100 9 130 12 30 2 87 7 125 10 39 2 93 7 120 9 28 3 82 8 120 11
39 3 93 7 120 10 45 5 110 10 245 20 43 3 110 9 245 20 33 3 87 7 120 10 33 3
87 7 120 10 33 3 85 8 115 10 30 3 84 7 120 10 36 3 90 8 120 10 30 2 82 6
115 9 60 6 106 10 245 21 41 3 95 8 120 10 25 2 81 7 125 10 44 3 103 8 130
11 74 7 162 14 235 19 162 12 198 15 235 20 37 4 92 9 245 20 30 2 82 6 115 9
33 3 92 8 130 11 39 3 93 8 120 11 28 3 75 7 105 9 109 7 226 16 250 21 14 2
66 6 115 10 50 3 110 8 135 9 25 2 79 6 120 10 41 3 93 7 115 10 73 8 212 20
364 30 36 2 85 7 110 9 45 6 240 21 305 25 17 1 16 3 -6 23 -13 13 -47 39 -74
58 -27 19 -50 38 -52 42 -2 4 -10 8 -17 8 -7 0 -15 3 -17 8 -1 4 -41 35 -88
69 -47 35 -96 71 -110 82 -22 17 -213 158 -265 195 -11 8 -60 44 -108 80 -48
37 -92 66 -97 66 -4 0 -10 4 -12 8 -1 4 -21 21 -43 37 -22 17 -46 35 -55 42
-8 6 -78 58 -155 115 -77 56 -141 106 -143 110 -2 5 -10 8 -17 8 -7 0 -15 3
-17 8 -1 4 -55 45 -118 92 -63 47 -121 90 -128 97 -7 7 -17 13 -21 13 -4 0
-17 8 -29 18 -37 31 -57 47 -107 82 -28 19 -55 39 -61 45 -7 5 -22 18 -35 27
-25 18 -567 416 -609 448 -14 11 -68 50 -120 89 -52 38 -102 77 -111 85 -9 9
-19 16 -23 16 -6 0 -80 54 -96 70 -3 3 -27 21 -55 40 -27 19 -57 40 -65 47
-42 35 -383 283 -389 283 -4 0 -7 -9 -8 -20 -2 -18 -30 -218 -38 -267 -6 -36
-26 -171 -30 -200 -2 -16 -4 -30 -5 -33 -2 -3 -2 -8 -2 -11 1 -6 -9 -77 -23
-159 -2 -14 -7 -43 -10 -65 -9 -69 -15 -109 -20 -134 -2 -13 -7 -49 -11 -80
-3 -31 -8 -58 -9 -61 -2 -3 -6 -30 -10 -60 -3 -30 -8 -62 -10 -70 -2 -8 -7
-39 -10 -69 -4 -30 -9 -63 -11 -75 -4 -21 -11 -72 -19 -133 -5 -48 -12 -54
-43 -41 -15 7 -34 18 -44 26 -9 7 -22 15 -30 16 -7 1 -22 7 -33 13 -84 45
-742 382 -1060 542 -93 47 -172 88 -175 91 -3 3 -93 49 -200 103 -107 55 -319
162 -470 239 -151 78 -320 164 -375 191 -55 28 -103 54 -106 59 -3 6 -9 9 -13
9 -9 -1 -40 12 -46 18 -3 3 -39 22 -80 41 -41 19 -80 38 -86 42 -6 5 -127 67
-268 138 l-256 131 -10 -27z"/>
</g>
</svg>
