<svg xmlns="http://www.w3.org/2000/svg" xmlns:xlink="http://www.w3.org/1999/xlink" width="259" height="98" viewBox="0 0 259 98"><defs><path id="1isla" d="M826 3152.738V3228l258.53-22.281v-75.29z"/><path id="1islb" d="M862.167 3181.08v-1.786c0-3.698-3.315-4.206-7.411-3.845-6.869.606-7.53 2.883-7.53 9.478v7.21c0 6.902.3 9.772 7.53 9.135 4.999-.44 7.41-1.025 7.41-6.448v-1.355l12.41-1.093v1.356c0 13.003-4.398 16.903-18.496 18.147-12.289 1.083-21.265 1.012-21.265-15.875v-11.956c0-15.285 8.013-18.27 21.265-19.439 11.99-1.057 18.495 1.758 18.495 13.591v1.788z"/><path id="1islc" d="M889.632 3179.461l15.722-1.385v-17.38l12.05-1.062v46.222l-12.05 1.061v-18.118l-15.722 1.385v18.12l-12.048 1.062v-46.22l12.048-1.063z"/><path id="1isld" d="M983.298 3153.823l8.615 28.269.423-.037 8.19-29.75 19.58-1.726v46.222l-12.048 1.062 1.204-35.541-.54-.077-11.326 36.558-10.422.92-11.386-34.558-.541.172 1.204 35.33-12.05 1.063v-46.221z"/><path id="1isle" d="M1036.366 3172.441l8.253-.726c4.578-.405 5.421-1.342 5.421-7.32 0-4.745-.724-6.283-5.421-5.87l-8.253.728zm0 22.928l-12.048 1.06v-46.22l22.711-2.003c11.205-.987 15.423 2.894 15.423 14.972 0 13.004-2.833 17.32-15.423 18.431l-10.663.94z"/><path id="1islf" d="M1074.555 3192l-9.759.862v-10.107l9.76-.862zm0-18.242l-9.759.86-.723-27.915 11.204-.988z"/><path id="1islg" d="M943.6 3187.292l-1.28 9.046-18.89-10.108-5.544 19.489 44.549-3.87z"/><path id="1islh" d="M928.416 3168.594l9.075 9.32 3.432-11.355 22.611 35.195-13.835-45.063-18.316 1.581z"/></defs><g><g transform="translate(-826 -3130)"><g><use fill="#161615" xlink:href="#1isla"/></g><g><g><g><use fill="#fff" xlink:href="#1islb"/></g><g><use fill="#fff" xlink:href="#1islc"/></g><g><use fill="#fff" xlink:href="#1isld"/></g><g><use fill="#fff" xlink:href="#1isle"/></g><g><use fill="#fff" xlink:href="#1islf"/></g></g><g><use fill="#fff" xlink:href="#1islg"/></g><g><use fill="#0099dc" xlink:href="#1islh"/></g></g></g></g></svg>