<svg xmlns="http://www.w3.org/2000/svg" xmlns:xlink="http://www.w3.org/1999/xlink" width="718.503" height="123.212" viewBox="0 0 718.503 123.212">
  <defs>
    <filter id="Path_19" x="0" y="0" width="718.503" height="123.212" filterUnits="userSpaceOnUse">
      <feOffset dy="5" input="SourceAlpha"/>
      <feGaussianBlur result="blur"/>
      <feFlood flood-color="#161615"/>
      <feComposite operator="in" in2="blur"/>
      <feComposite in="SourceGraphic"/>
    </filter>
    <filter id="Path_11" x="387.397" y="61.512" width="52.497" height="26.947" filterUnits="userSpaceOnUse">
      <feOffset dy="5" input="SourceAlpha"/>
      <feGaussianBlur result="blur-2"/>
      <feFlood flood-color="#161615"/>
      <feComposite operator="in" in2="blur-2"/>
      <feComposite in="SourceGraphic"/>
    </filter>
  </defs>
  <g id="Group_7" data-name="Group 7" transform="translate(-384.893 -449.191)">
    <g transform="matrix(1, 0, 0, 1, 384.89, 449.19)" filter="url(#Path_19)">
      <path id="Path_19-2" data-name="Path 19" d="M25.477-54.677h7.738L27.594-39.42h7.373l5.621-15.257H48.18L42.632-39.42h5.84l-1.46,8.4H39.858l-3.431,9.49h6.862l-1.46,8.395H33.215L28.47,0H20.732l4.745-13.14H18.1L13.359,0H5.621l4.745-13.14H3.723l1.46-8.395h8.249l3.431-9.49H9.855l1.46-8.4h8.541ZM24.6-31.025l-3.431,9.49h7.446l3.577-9.49ZM52.487,0l9.636-54.75H90.885q7.811,0,11.534,1.971t3.723,7.738a24.349,24.349,0,0,1-.438,4.307,20.071,20.071,0,0,1-3.248,8.76q-2.3,3.066-7.556,3.869l-.146.584q4.307.292,6.059,2.19a7.676,7.676,0,0,1,1.752,5.4,27.836,27.836,0,0,1-.438,4.672,27.178,27.178,0,0,1-2.518,8.03,11.3,11.3,0,0,1-4.417,4.635,17.688,17.688,0,0,1-5.8,2.081A48.854,48.854,0,0,1,81.541,0ZM74.606-42.778,72.854-32.85H83.366q3.869,0,5.293-.986t2.007-4.271a9.871,9.871,0,0,0,.219-1.9,2.415,2.415,0,0,0-.912-2.153,5.755,5.755,0,0,0-3.1-.621ZM71.1-22.7,69.2-11.972H80.227a9.7,9.7,0,0,0,5.365-1.168q1.716-1.168,2.3-4.38a10.15,10.15,0,0,0,.219-1.971,2.588,2.588,0,0,0-1.278-2.592,11.062,11.062,0,0,0-4.416-.62ZM131.181.73q-10.8,0-16.5-3.176t-5.694-11.644q0-3.212,3.212-21.024a29.365,29.365,0,0,1,2.774-8.578,19.731,19.731,0,0,1,4.416-5.8,19.427,19.427,0,0,1,6.059-3.5,32.711,32.711,0,0,1,7.227-1.789,66.69,66.69,0,0,1,8.432-.474,65.011,65.011,0,0,1,7.336.365,31.194,31.194,0,0,1,6.1,1.314,13.719,13.719,0,0,1,4.782,2.555,11.173,11.173,0,0,1,2.956,4.2,15.792,15.792,0,0,1,1.1,6.168q0,2.7-3.212,21.024a29.366,29.366,0,0,1-2.774,8.577,20.783,20.783,0,0,1-4.417,5.876,19.1,19.1,0,0,1-6.1,3.613A32.112,32.112,0,0,1,139.613.256,66.69,66.69,0,0,1,131.181.73Zm2.263-12.7q6.059,0,8.5-1.715t3.467-7.556Q147.9-35.478,147.9-37.23q0-3.358-1.971-4.344t-7.081-.986q-6.132,0-8.5,1.569t-3.394,7.41q-2.482,14.235-2.482,16.133,0,3.358,1.971,4.416T133.444-11.972ZM164.688,0l9.636-54.75h27.74q9.782,0,14.381,3.395t4.6,11.205q0,2.92-2.7,18.1Q216.3-10.439,210.934-5.22T194.4,0Zm21.973-42.048L181.551-12.7H194.4q7.227,0,8.906-9.344,2.409-13.578,2.409-14.892,0-2.993-1.5-4.052a8.428,8.428,0,0,0-4.781-1.058Zm40.734-12.7h16.717l6.059,21.1h.511l13.8-21.1h16.936L255.135-19.2,251.777,0h-14.6l3.358-19.2ZM329.449-35.113H314.411a22.237,22.237,0,0,0,.438-3.358q0-4.088-8.1-4.088-5.913,0-7.884,2.081T295.8-32.12q-2.336,13.067-2.336,14.673a4.891,4.891,0,0,0,1.715,4.2q1.716,1.277,6.169,1.278a33.763,33.763,0,0,0,4.124-.182,9.289,9.289,0,0,0,2.884-.949,5.025,5.025,0,0,0,2.336-2.555,16.922,16.922,0,0,0,1.168-4.782h15.038q-1.825,12.556-7.446,16.863T300.687.73q-3.8,0-6.241-.146T289.08,0a15.1,15.1,0,0,1-4.672-1.35A14.746,14.746,0,0,1,281.05-3.8a8.887,8.887,0,0,1-2.336-3.942,19.738,19.738,0,0,1-.73-5.694q0-2.92,3.139-21.024a34.477,34.477,0,0,1,2.81-9.125A20.732,20.732,0,0,1,288.2-49.64a16.427,16.427,0,0,1,6.059-3.5,35.872,35.872,0,0,1,7.373-1.679,78.4,78.4,0,0,1,8.979-.438q10,0,14.855,2.92t4.854,10.147A53.42,53.42,0,0,1,329.449-35.113ZM355.51-54.75l-3.65,20.586h19.053l3.65-20.586h14.6L379.527,0h-14.6l3.8-21.462H349.67L345.874,0h-14.6l9.636-54.75Zm99.134,0h23.141l4.38,34.383h.511L498.663-54.75h23.725L512.752,0h-14.6l8.833-41.975-.584-.146L485.231,0H472.6l-6.351-42.121-.73.146L459.608,0h-14.6Zm84.9,39.566L536.842,0h-14.6l9.636-54.75H559.4q8.468,0,12.228,2.847t3.759,9.563a44.688,44.688,0,0,1-.73,6.935q-2.044,11.826-6.5,16.024t-15.7,4.2Zm4.818-27.594-2.774,15.622h10q4.234,0,5.657-1.424t2.372-6.679a18.163,18.163,0,0,0,.438-3.577,3.451,3.451,0,0,0-1.278-3.066,8.182,8.182,0,0,0-4.417-.876ZM600.717-54.75,591.081,0h-14.6l9.636-54.75Zm9.2,0h24.674l8.76,42.121.146-.073,6.5-42.048h14.6L654.956,0H630.063l-8.541-42.194-.146.146L614.879,0h-14.6ZM719.634-37.814H704.742a2.983,2.983,0,0,0,.146-.949q0-4.526-8.541-4.526a24.531,24.531,0,0,0-5.256.475,12.992,12.992,0,0,0-3.431,1.2,5.4,5.4,0,0,0-2.154,2.409,17.546,17.546,0,0,0-1.277,3.322q-.438,1.642-.949,4.708-2.19,12.264-2.19,13.578,0,3.723,2.263,5.037t7.3,1.314q5.621,0,7.847-1.825t3.248-7.446H691.675l1.752-10.147H718.32L716.641-21.1a55.761,55.761,0,0,1-2.92,11.242,15.122,15.122,0,0,1-5.037,6.57A18.142,18.142,0,0,1,700.8-.037,77.039,77.039,0,0,1,688.536.73q-4.745,0-8.1-.328a30.246,30.246,0,0,1-6.315-1.277,13.245,13.245,0,0,1-4.745-2.519A10.3,10.3,0,0,1,666.6-7.519a16.822,16.822,0,0,1-.985-6.059q0-3.869,3.139-20.8a35.291,35.291,0,0,1,2.92-9.125,20.855,20.855,0,0,1,4.344-6.059,17.207,17.207,0,0,1,6.1-3.541,34.448,34.448,0,0,1,7.373-1.715,78.4,78.4,0,0,1,8.979-.438,63.513,63.513,0,0,1,8.724.511,25.794,25.794,0,0,1,6.716,1.861,9.61,9.61,0,0,1,4.635,3.979,12.869,12.869,0,0,1,1.533,6.57A26.232,26.232,0,0,1,719.634-37.814Z" transform="matrix(1, -0.09, 0.09, 1, 1.11, 117.81)" fill="#fff"/>
    </g>
    <g transform="matrix(1, 0, 0, 1, 384.89, 449.19)" filter="url(#Path_11)">
      <path id="Path_11-2" data-name="Path 11" d="M30.3,1.2,28.793,11.383,6.533,0,0,21.947l52.5-4.357Z" transform="translate(387.4 61.51)" fill="#fff"/>
    </g>
    <path id="Path_12" data-name="Path 12" d="M0,14.038,10.219,25.03l3.864-13.392L39.547,53.146,23.968,0,3.341,1.865Z" transform="translate(784.809 474.539)" fill="#06baed"/>
  </g>
</svg>
