<svg xmlns="http://www.w3.org/2000/svg" xmlns:xlink="http://www.w3.org/1999/xlink" width="712" height="122" viewBox="0 0 712 122"><defs><path id="zgioa" d="M1078.6 441.61l-14.835 1.298c.071-.3.092-.62.062-.959-.263-3.005-3.23-4.26-8.903-3.764-2.084.182-3.816.493-5.194.93-1.379.439-2.483.939-3.313 1.5-.83.561-1.476 1.423-1.936 2.587a17.546 17.546 0 0 0-.983 3.42c-.195 1.117-.374 2.708-.535 4.774-.742 8.272-1.074 12.844-.998 13.717.216 2.473 1.114 4.08 2.693 4.82 1.58.742 4.042.966 7.387.673 3.733-.326 6.286-1.16 7.659-2.502 1.372-1.341 2.235-3.908 2.587-7.7l-10.036.878.861-10.261 24.798-2.17-.839 9.673c-.408 4.823-1.051 8.641-1.929 11.454-.877 2.812-2.36 5.14-4.445 6.984-2.086 1.843-4.61 3.15-7.571 3.923-2.961.772-7.011 1.383-12.15 1.832-3.152.276-5.852.402-8.101.38-2.25-.024-4.383-.264-6.402-.723-2.019-.458-3.668-1.157-4.947-2.095-1.279-.939-2.32-2.228-3.122-3.867-.803-1.64-1.307-3.623-1.51-5.95-.225-2.57.213-9.57 1.314-21 .369-3.598 1.073-6.713 2.113-9.345 1.04-2.63 2.306-4.77 3.799-6.414 1.493-1.645 3.414-2.998 5.764-4.058a34.448 34.448 0 0 1 7.195-2.352c2.447-.507 5.416-.913 8.907-1.219 3.394-.297 6.305-.38 8.735-.251 2.43.13 4.713.552 6.852 1.269 2.14.717 3.794 1.903 4.965 3.56 1.17 1.656 1.87 3.793 2.1 6.41.118 1.358.105 2.874-.042 4.548zm-110.778-7.31l24.58-2.15 12.398 41.197.14-.085 2.807-42.454 14.544-1.273-4.827 55.382-24.799 2.17-12.186-41.29-.132.159-2.808 42.454-14.544 1.272zm-9.163.802l-4.827 55.382-14.545 1.272 4.828-55.381zm-55.098 16.839l-1.402 15.804 9.963-.872c2.812-.246 4.65-.883 5.512-1.91.863-1.029 1.457-3.316 1.781-6.862.168-1.431.21-2.632.125-3.601-.127-1.455-.64-2.436-1.54-2.943-.9-.508-2.391-.67-4.476-.488zm-2.394 27.909l-1.368 15.361-14.544 1.273 4.827-55.382 27.417-2.398c5.623-.493 9.766.098 12.429 1.77 2.662 1.672 4.188 4.739 4.578 9.199.149 1.697.108 4.02-.122 6.972-.67 7.973-2.363 13.483-5.076 16.529-2.714 3.046-7.804 4.896-15.27 5.55zm-88.025-32.017l23.053-2.016 7.36 33.87.51-.044 12.929-35.646 23.634-2.068-4.827 55.382-14.545 1.272 5.141-42.585-.594-.094-17.418 43.805-12.581 1.101-9.998-41.407-.715.209-2.232 42.33-14.544 1.273zm-98.757 8.64l-1.842 20.826 18.981-1.66 1.842-20.826 14.544-1.272-4.827 55.381-14.545 1.273 1.911-21.712-18.98 1.66-1.911 21.712-14.545 1.273 4.828-55.382zm-24.25 21.834zm-14.98 1.31c.15-1.624.198-2.752.143-3.382-.238-2.715-3.047-3.838-8.429-3.367-3.927.344-6.484 1.264-7.672 2.76-1.188 1.496-1.964 4.36-2.326 8.594-.792 8.814-1.142 13.754-1.048 14.82.17 1.94.861 3.284 2.074 4.033 1.214.748 3.3.993 6.257.735 1.842-.161 3.206-.342 4.093-.542.886-.2 1.816-.598 2.79-1.196.973-.598 1.675-1.515 2.104-2.75.43-1.234.678-2.855.747-4.864l14.98-1.31c-.482 8.444-2.465 14.26-5.947 17.447-3.483 3.187-9.588 5.162-18.315 5.926-2.52.22-4.597.353-6.23.398a60.855 60.855 0 0 1-5.396-.114c-1.965-.121-3.555-.434-4.772-.938s-2.403-1.219-3.558-2.144c-1.156-.924-2.046-2.166-2.671-3.723-.625-1.558-1.033-3.427-1.223-5.609-.17-1.939.261-9.012 1.294-21.217.32-3.595.989-6.706 2.005-9.336 1.015-2.629 2.257-4.765 3.726-6.408 1.468-1.643 3.378-2.982 5.73-4.018a35.873 35.873 0 0 1 7.199-2.316c2.447-.507 5.416-.913 8.907-1.219 6.642-.58 11.66-.043 15.053 1.615 3.394 1.657 5.3 4.885 5.72 9.685.107 1.212.021 3.589-.255 7.13zm-88.397-11.977l16.653-1.457 7.875 20.488.509-.044 11.906-22.22 16.871-1.476-23.081 37.707-1.672 19.418-14.545 1.273 1.672-19.419zm-39.472 16.203l-2.533 29.68 12.8-1.12c4.799-.42 7.485-3.781 8.057-10.084.81-9.158 1.178-14.173 1.102-15.046-.174-1.987-.789-3.29-1.844-3.905-1.055-.616-2.674-.829-4.856-.638zm-18.225 43.803l4.828-55.381 27.634-2.418c6.497-.568 11.37.141 14.622 2.128 3.252 1.988 5.105 5.575 5.559 10.763.17 1.939-.202 8.029-1.113 18.27-.683 7.827-2.655 13.63-5.915 17.408-3.26 3.778-8.6 5.992-16.017 6.641zm-32.168-9.203c4.024-.352 6.798-1.169 8.322-2.45 1.525-1.281 2.457-3.891 2.796-7.829.821-9.598 1.181-14.979 1.08-16.142-.196-2.23-.976-3.616-2.343-4.156-1.366-.54-3.746-.661-7.14-.364-4.072.356-6.85 1.124-8.335 2.304-1.484 1.18-2.396 3.74-2.736 7.678-.821 9.598-1.177 15.027-1.066 16.288.195 2.23.978 3.639 2.348 4.227 1.37.589 3.729.737 7.074.444zm-1.148 12.851c-7.175.628-12.745.053-16.712-1.725-3.966-1.779-6.195-5.48-6.687-11.103-.186-2.134.27-9.208 1.368-21.224.293-3.348.965-6.277 2.016-8.787 1.05-2.51 2.348-4.566 3.893-6.166 1.546-1.601 3.456-2.94 5.731-4.02a32.711 32.711 0 0 1 7.044-2.41c2.42-.53 5.206-.932 8.358-1.208 2.763-.242 5.21-.334 7.34-.276 2.13.058 4.193.317 6.187.778 1.994.46 3.656 1.17 4.986 2.128 1.33.959 2.433 2.267 3.311 3.924.878 1.658 1.42 3.674 1.628 6.05.157 1.794-.298 8.868-1.367 21.224-.293 3.347-.965 6.276-2.016 8.786-1.05 2.51-2.346 4.59-3.887 6.24-1.541 1.649-3.46 3.026-5.758 4.13a32.112 32.112 0 0 1-7.076 2.451c-2.421.53-5.207.932-8.359 1.208zm-61.892-18.108l-.956 10.856 10.981-.96c2.424-.213 4.172-.757 5.244-1.632 1.071-.875 1.707-2.397 1.909-4.564.081-.74.097-1.4.046-1.982-.115-1.31-.614-2.133-1.499-2.47-.884-.338-2.369-.416-4.453-.234zm1.74-20.304l-.88 10.043 10.473-.916c2.57-.225 4.298-.706 5.186-1.443.888-.737 1.43-2.213 1.628-4.43.082-.739.1-1.376.053-1.909-.09-1.018-.455-1.707-1.097-2.066-.642-.359-1.69-.475-3.145-.347zm-18.306 44.543l4.828-55.381 28.652-2.507c5.188-.454 9.075-.134 11.662.958 2.587 1.093 4.048 3.554 4.384 7.385.11 1.26.09 2.703-.061 4.328-.3 3.837-1.124 6.84-2.473 9.01-1.35 2.17-3.746 3.674-7.19 4.513l-.094.594c2.877-.056 4.953.495 6.227 1.654 1.273 1.159 2.012 2.902 2.216 5.229.123 1.406.113 2.97-.03 4.692-.293 3.348-.896 6.087-1.808 8.22-.913 2.13-2.245 3.798-3.996 5.002a17.688 17.688 0 0 1-5.6 2.578c-1.982.516-4.574.913-7.773 1.193zm-30.484-28.476l-2.59 9.753 7.417-.65 2.736-9.765zm-1.188-23.638l7.708-.675-4.27 15.689 7.345-.643 4.27-15.688 7.563-.662-4.197 15.682 5.818-.509-.723 8.49-7.127.624-2.59 9.753 6.835-.598-.722 8.49-8.582.751-3.581 13.504-7.709.674 3.582-13.503-7.345.642-3.582 13.504-7.708.674 3.581-13.503-6.617.579.722-8.49 8.218-.72 2.59-9.753-6.98.611.722-8.49 8.509-.745z"/><path id="zgiob" d="M781.593 486.898l-1.51 10.187-22.26-11.383-6.533 21.947 52.497-4.357z"/><path id="zgiog" d="M763.809 463.577l10.22 10.992 3.864-13.391 25.463 41.507-15.58-53.146-20.626 1.865z"/><mask id="zgiod" width="2" height="2" x="-1" y="-1"><path fill="#fff" d="M367 425h712v117H367z"/><use xlink:href="#zgioa"/></mask><filter id="zgioc" width="732" height="142" x="357" y="415" filterUnits="userSpaceOnUse"><feOffset dy="5" in="SourceGraphic" result="FeOffset1146Out"/><feGaussianBlur in="FeOffset1146Out" result="FeGaussianBlur1147Out" stdDeviation="0 0"/></filter><mask id="zgiof" width="2" height="2" x="-1" y="-1"><path fill="#fff" d="M751 485h53v23h-53z"/><use xlink:href="#zgiob"/></mask><filter id="zgioe" width="73" height="48" x="741" y="475" filterUnits="userSpaceOnUse"><feOffset dy="5" in="SourceGraphic" result="FeOffset1162Out"/><feGaussianBlur in="FeOffset1162Out" result="FeGaussianBlur1163Out" stdDeviation="0 0"/></filter></defs><g><g transform="translate(-367 -425)"><g><g filter="url(#zgioc)"><use fill="none" stroke-width="0" mask="url(&quot;#zgiod&quot;)" xlink:href="#zgioa"/><use fill="#fff" xlink:href="#zgioa"/></g><use fill="#161615" xlink:href="#zgioa"/></g><g><g filter="url(#zgioe)"><use fill="none" stroke-width="0" mask="url(&quot;#zgiof&quot;)" xlink:href="#zgiob"/><use fill="#fff" xlink:href="#zgiob"/></g><use fill="#161615" xlink:href="#zgiob"/></g><g><use fill="#06baed" xlink:href="#zgiog"/></g></g></g></svg>